{
  "accessors": [
    {
      "bufferView": 2,
      "componentType": 5126,
      "count": 3934,
      "max": [
        1.844969391822815,
        0.9745638966560364,
        2.1929476261138916
      ],
      "min": [
        -0.9745638966560364,
        -0.9745638966560364,
        0.0
      ],
      "type": "VEC3"
    },
    {
      "bufferView": 2,
      "byteOffset": 47208,
      "componentType": 5126,
      "count": 3934,
      "max": [
        1.0,
        1.0,
        0.9999122619628906
      ],
      "min": [
        -1.0,
        -1.0,
        -0.9999717473983765
      ],
      "type": "VEC3"
    },
    {
      "bufferView": 1,
      "componentType": 5126,
      "count": 3934,
      "max": [
        0.0,
        0.0
      ],
      "min": [
        0.0,
        0.0
      ],
      "type": "VEC2"
    },
    {
      "bufferView": 0,
      "componentType": 5125,
      "count": 23232,
      "type": "SCALAR"
    },
    {
      "bufferView": 2,
      "byteOffset": 94416,
      "componentType": 5126,
      "count": 2338,
      "max": [
        0.9559763669967651,
        0.9559763669967651,
        2.197144031524658
      ],
      "min": [
        -0.9559763073921204,
        -0.9559764266014099,
        0.0
      ],
      "type": "VEC3"
    },
    {
      "bufferView": 2,
      "byteOffset": 122472,
      "componentType": 5126,
      "count": 2338,
      "max": [
        1.0,
        1.0,
        1.0
      ],
      "min": [
        -1.0,
        -1.0,
        -1.0
      ],
      "type": "VEC3"
    },
    {
      "bufferView": 1,
      "byteOffset": 31472,
      "componentType": 5126,
      "count": 2338,
      "max": [
        0.0,
        0.0
      ],
      "min": [
        0.0,
        0.0
      ],
      "type": "VEC2"
    },
    {
      "bufferView": 0,
      "byteOffset": 92928,
      "componentType": 5125,
      "count": 13632,
      "type": "SCALAR"
    }
  ],
  "asset": {
    "extras": {
      "author": "hungry_beagle (https://sketchfab.com/hungry_beagle)",
      "license": "CC-BY-4.0 (http://creativecommons.org/licenses/by/4.0/)",
      "source": "https://sketchfab.com/3d-models/classic-red-coffee-mug-c89fa8b5390145488a28c41ec54ccc8d",
      "title": "Classic Red Coffee Mug"
    },
    "generator": "Sketchfab-12.67.0",
    "version": "2.0"
  },
  "bufferViews": [
    {
      "buffer": 0,
      "byteLength": 147456,
      "name": "floatBufferViews",
      "target": 34963
    },
    {
      "buffer": 0,
      "byteLength": 50176,
      "byteOffset": 147456,
      "byteStride": 8,
      "name": "floatBufferViews",
      "target": 34962
    },
    {
      "buffer": 0,
      "byteLength": 150528,
      "byteOffset": 197632,
      "byteStride": 12,
      "name": "floatBufferViews",
      "target": 34962
    }
  ],
  "buffers": [
    {
      "byteLength": 348160,
      "uri": "scene.bin"
    }
  ],
  "materials": [
    {
      "doubleSided": true,
      "name": "material",
      "pbrMetallicRoughness": {
        "baseColorFactor": [
          0.295692,
          0.0233611,
          0.00670948,
          1.0
        ],
        "metallicFactor": 0.20843593625546455,
        "roughnessFactor": 0.18354674741136623
      }
    },
    {
      "doubleSided": true,
      "name": "White_Mug",
      "pbrMetallicRoughness": {
        "baseColorFactor": [
          0.8,
          0.8,
          0.8,
          1.0
        ],
        "metallicFactor": 0.0,
        "roughnessFactor": 0.7757552302076575
      }
    }
  ],
  "meshes": [
    {
      "name": "Mesh.Mug_Red_0",
      "primitives": [
        {
          "attributes": {
            "NORMAL": 1,
            "POSITION": 0,
            "TEXCOORD_0": 2
          },
          "indices": 3,
          "material": 0,
          "mode": 4
        }
      ]
    },
    {
      "name": "Mesh.Mug_White Mug_0",
      "primitives": [
        {
          "attributes": {
            "NORMAL": 5,
            "POSITION": 4,
            "TEXCOORD_0": 6
          },
          "indices": 7,
          "material": 1,
          "mode": 4
        }
      ]
    }
  ],
  "nodes": [
    {
      "children": [
        1
      ],
      "matrix": [
        1.0,
        0.0,
        0.0,
        0.0,
        0.0,
        2.220446049250313e-16,
        -1.0,
        0.0,
        0.0,
        1.0,
        2.220446049250313e-16,
        0.0,
        0.0,
        0.0,
        0.0,
        1.0
      ],
      "name": "Sketchfab_model"
    },
    {
      "children": [
        2
      ],
      "matrix": [
        1.0,
        0.0,
        0.0,
        0.0,
        0.0,
        0.0,
        1.0,
        0.0,
        0.0,
        -1.0,
        0.0,
        0.0,
        0.0,
        0.0,
        0.0,
        1.0
      ],
      "name": "00d9f2dbe36c4b5e81e53b237a3bb796.fbx"
    },
    {
      "children": [
        3
      ],
      "name": "RootNode"
    },
    {
      "children": [
        4,
        5
      ],
      "matrix": [
        -18.269117665765865,
        -1.6653344098827927e-14,
        98.3170270799293,
        0.0,
        98.31702707992743,
        1.947071740724658e-05,
        18.269117665765542,
        0.0,
        -1.9143033413993038e-05,
        99.9999999999981,
        -3.5571287915203698e-06,
        0.0,
        0.0,
        0.0,
        290.72076416015625,
        1.0
      ],
      "name": "Mesh.Mug"
    },
    {
      "mesh": 0,
      "name": "Mesh.Mug_Red_0"
    },
    {
      "mesh": 1,
      "name": "Mesh.Mug_White Mug_0"
    }
  ],
  "scene": 0,
  "scenes": [
    {
      "name": "Sketchfab_Scene",
      "nodes": [
        0
      ]
    }
  ]
}
