{
  "accessors": [
    {
      "bufferView": 2,
      "componentType": 5126,
      "count": 1953,
      "max": [
        0.9166667461395264,
        1.4060750007629395,
        0.9166667461395264
      ],
      "min": [
        -0.9166666865348816,
        -0.6816341876983643,
        -0.9166667461395264
      ],
      "type": "VEC3"
    },
    {
      "bufferView": 2,
      "byteOffset": 23436,
      "componentType": 5126,
      "count": 1953,
      "max": [
        1.0,
        0.9999991059303284,
        1.0
      ],
      "min": [
        -1.0,
        -1.0,
        -1.0
      ],
      "type": "VEC3"
    },
    {
      "bufferView": 1,
      "componentType": 5126,
      "count": 1953,
      "max": [
        0.6250001192092896,
        1.0000001192092896
      ],
      "min": [
        0.1250000149011612,
        0.0
      ],
      "type": "VEC2"
    },
    {
      "bufferView": 0,
      "componentType": 5125,
      "count": 11136,
      "type": "SCALAR"
    },
    {
      "bufferView": 2,
      "byteOffset": 46872,
      "componentType": 5126,
      "count": 1089,
      "max": [
        0.9166667461395264,
        0.11573290824890137,
        0.9166667461395264
      ],
      "min": [
        -0.9166667461395264,
        -0.122857004404068,
        -0.9166667461395264
      ],
      "type": "VEC3"
    },
    {
      "bufferView": 2,
      "byteOffset": 59940,
      "componentType": 5126,
      "count": 1089,
      "max": [
        0.29742908477783203,
        0.999989926815033,
        0.3327210545539856
      ],
      "min": [
        -0.44219598174095154,
        0.8954410552978516,
        -0.3794594705104828
      ],
      "type": "VEC3"
    },
    {
      "bufferView": 1,
      "byteOffset": 15624,
      "componentType": 5126,
      "count": 1089,
      "max": [
        1.0000001192092896,
        1.0000001192092896
      ],
      "min": [
        0.0,
        0.0
      ],
      "type": "VEC2"
    },
    {
      "bufferView": 0,
      "byteOffset": 44544,
      "componentType": 5125,
      "count": 6144,
      "type": "SCALAR"
    },
    {
      "bufferView": 2,
      "byteOffset": 73008,
      "componentType": 5126,
      "count": 1901,
      "max": [
        3.3373489379882813,
        1.0000001192092896,
        2.376295566558838
      ],
      "min": [
        -0.7716124653816223,
        -1.0000001192092896,
        -0.9668673872947693
      ],
      "type": "VEC3"
    },
    {
      "bufferView": 2,
      "byteOffset": 95820,
      "componentType": 5126,
      "count": 1901,
      "max": [
        1.0,
        0.9999998211860657,
        0.9999464154243469
      ],
      "min": [
        -1.0,
        -0.9999997615814209,
        -0.9999463558197021
      ],
      "type": "VEC3"
    },
    {
      "bufferView": 1,
      "byteOffset": 24336,
      "componentType": 5126,
      "count": 1901,
      "max": [
        0.6250001192092896,
        0.7500001192092896
      ],
      "min": [
        0.0,
        0.0
      ],
      "type": "VEC2"
    },
    {
      "bufferView": 0,
      "byteOffset": 69120,
      "componentType": 5125,
      "count": 8448,
      "type": "SCALAR"
    },
    {
      "bufferView": 2,
      "byteOffset": 118632,
      "componentType": 5126,
      "count": 1649,
      "max": [
        0.8395062685012817,
        0.8395062685012817,
        0.8395062685012817
      ],
      "min": [
        -0.8395062685012817,
        -0.8395062685012817,
        -0.8395062685012817
      ],
      "type": "VEC3"
    },
    {
      "bufferView": 2,
      "byteOffset": 138420,
      "componentType": 5126,
      "count": 1649,
      "max": [
        1.0,
        1.0,
        1.0
      ],
      "min": [
        -1.0,
        -1.0,
        -1.0
      ],
      "type": "VEC3"
    },
    {
      "bufferView": 1,
      "byteOffset": 39544,
      "componentType": 5126,
      "count": 1649,
      "max": [
        0.8750001192092896,
        1.0000001192092896
      ],
      "min": [
        0.125,
        0.0
      ],
      "type": "VEC2"
    },
    {
      "bufferView": 0,
      "byteOffset": 102912,
      "componentType": 5125,
      "count": 9216,
      "type": "SCALAR"
    },
    {
      "bufferView": 2,
      "byteOffset": 158208,
      "componentType": 5126,
      "count": 1325,
      "max": [
        0.943266749382019,
        1.0103696584701538,
        -0.24906031787395477
      ],
      "min": [
        -0.9432665705680847,
        -0.8896620273590088,
        -0.4592270851135254
      ],
      "type": "VEC3"
    },
    {
      "bufferView": 2,
      "byteOffset": 174108,
      "componentType": 5126,
      "count": 1325,
      "max": [
        0.9993622303009033,
        0.9992106556892395,
        0.9999310374259949
      ],
      "min": [
        -0.9993622899055481,
        -0.9993709325790405,
        -0.9999310374259949
      ],
      "type": "VEC3"
    },
    {
      "bufferView": 1,
      "byteOffset": 52736,
      "componentType": 5126,
      "count": 1325,
      "max": [
        0.6250001192092896,
        1.000000238418579
      ],
      "min": [
        0.3750000298023224,
        0.75
      ],
      "type": "VEC2"
    },
    {
      "bufferView": 0,
      "byteOffset": 139776,
      "componentType": 5125,
      "count": 7296,
      "type": "SCALAR"
    },
    {
      "bufferView": 2,
      "byteOffset": 190008,
      "componentType": 5126,
      "count": 1649,
      "max": [
        0.8395062685012817,
        0.8395062685012817,
        0.8395062685012817
      ],
      "min": [
        -0.8395062685012817,
        -0.8395062685012817,
        -0.8395062685012817
      ],
      "type": "VEC3"
    },
    {
      "bufferView": 2,
      "byteOffset": 209796,
      "componentType": 5126,
      "count": 1649,
      "max": [
        1.0,
        1.0,
        1.0
      ],
      "min": [
        -1.0,
        -1.0,
        -1.0
      ],
      "type": "VEC3"
    },
    {
      "bufferView": 1,
      "byteOffset": 63336,
      "componentType": 5126,
      "count": 1649,
      "max": [
        0.8750001192092896,
        1.0000001192092896
      ],
      "min": [
        0.125,
        0.0
      ],
      "type": "VEC2"
    },
    {
      "bufferView": 0,
      "byteOffset": 168960,
      "componentType": 5125,
      "count": 9216,
      "type": "SCALAR"
    }
  ],
  "asset": {
    "extras": {
      "author": "PolyCube (https://sketchfab.com/PolyCube2)",
      "license": "CC-BY-4.0 (http://creativecommons.org/licenses/by/4.0/)",
      "source": "https://sketchfab.com/3d-models/cute-mug-free-3d-model-c329807e8b354e3883d8e6a1596563ae",
      "title": "Cute Mug - Free 3D model"
    },
    "generator": "Sketchfab-13.74.0",
    "version": "2.0"
  },
  "bufferViews": [
    {
      "buffer": 0,
      "byteLength": 205824,
      "name": "floatBufferViews",
      "target": 34963
    },
    {
      "buffer": 0,
      "byteLength": 76528,
      "byteOffset": 205824,
      "byteStride": 8,
      "name": "floatBufferViews",
      "target": 34962
    },
    {
      "buffer": 0,
      "byteLength": 229584,
      "byteOffset": 282352,
      "byteStride": 12,
      "name": "floatBufferViews",
      "target": 34962
    }
  ],
  "buffers": [
    {
      "byteLength": 511936,
      "uri": "scene.bin"
    }
  ],
  "materials": [
    {
      "doubleSided": true,
      "name": "Material.001",
      "pbrMetallicRoughness": {
        "baseColorFactor": [
          0.8,
          0.8,
          0.8,
          1.0
        ],
        "metallicFactor": 0.0
      }
    },
    {
      "doubleSided": true,
      "name": "Material.003",
      "pbrMetallicRoughness": {
        "baseColorFactor": [
          0.15232400000000001,
          0.04720040000000004,
          0.013995899999999997,
          1.0
        ],
        "metallicFactor": 0.0,
        "roughnessFactor": 0.6254177498549571
      }
    },
    {
      "doubleSided": true,
      "name": "Material.006",
      "pbrMetallicRoughness": {
        "baseColorFactor": [
          0.0,
          0.0,
          0.0,
          1.0
        ],
        "metallicFactor": 0.0,
        "roughnessFactor": 0.0
      }
    },
    {
      "doubleSided": true,
      "name": "Material.007",
      "pbrMetallicRoughness": {
        "baseColorFactor": [
          0.0,
          0.0,
          0.0,
          1.0
        ],
        "metallicFactor": 0.0,
        "roughnessFactor": 0.0
      }
    }
  ],
  "meshes": [
    {
      "name": "Object_0",
      "primitives": [
        {
          "attributes": {
            "NORMAL": 1,
            "POSITION": 0,
            "TEXCOORD_0": 2
          },
          "indices": 3,
          "material": 0,
          "mode": 4
        }
      ]
    },
    {
      "name": "Object_1",
      "primitives": [
        {
          "attributes": {
            "NORMAL": 5,
            "POSITION": 4,
            "TEXCOORD_0": 6
          },
          "indices": 7,
          "material": 1,
          "mode": 4
        }
      ]
    },
    {
      "name": "Object_2",
      "primitives": [
        {
          "attributes": {
            "NORMAL": 9,
            "POSITION": 8,
            "TEXCOORD_0": 10
          },
          "indices": 11,
          "material": 0,
          "mode": 4
        }
      ]
    },
    {
      "name": "Object_3",
      "primitives": [
        {
          "attributes": {
            "NORMAL": 13,
            "POSITION": 12,
            "TEXCOORD_0": 14
          },
          "indices": 15,
          "material": 2,
          "mode": 4
        }
      ]
    },
    {
      "name": "Object_4",
      "primitives": [
        {
          "attributes": {
            "NORMAL": 17,
            "POSITION": 16,
            "TEXCOORD_0": 18
          },
          "indices": 19,
          "material": 3,
          "mode": 4
        }
      ]
    },
    {
      "name": "Object_5",
      "primitives": [
        {
          "attributes": {
            "NORMAL": 21,
            "POSITION": 20,
            "TEXCOORD_0": 22
          },
          "indices": 23,
          "material": 2,
          "mode": 4
        }
      ]
    }
  ],
  "nodes": [
    {
      "children": [
        1
      ],
      "matrix": [
        0.9952234625816345,
        0.0686628967523575,
        -0.06939473748207091,
        0.0,
        -0.07522579282522202,
        0.08633828163146995,
        -0.993421733379364,
        0.0,
        -0.06221979483962059,
        0.9938969016075134,
        0.09109110385179542,
        0.0,
        0.0,
        0.0,
        0.0,
        1.0
      ],
      "name": "Sketchfab_model"
    },
    {
      "children": [
        2
      ],
      "name": "root"
    },
    {
      "children": [
        3,
        5,
        7,
        9,
        11,
        13
      ],
      "matrix": [
        1.0,
        0.0,
        0.0,
        0.0,
        0.0,
        2.220446049250313e-16,
        1.0,
        0.0,
        0.0,
        -1.0,
        2.220446049250313e-16,
        0.0,
        0.0,
        0.0,
        0.0,
        1.0
      ],
      "name": "GLTF_SceneRootNode"
    },
    {
      "children": [
        4
      ],
      "matrix": [
        1.0928132456197752,
        0.23443938106949624,
        -0.2623130536379772,
        0.0,
        -0.19358399765510662,
        0.8324190986211693,
        -0.06251819449666479,
        0.0,
        0.23771022447053783,
        0.13898717695135973,
        1.114534506030394,
        0.0,
        0.04173947870731354,
        -0.282802015542984,
        -0.055447936058044434,
        1.0
      ],
      "name": "Cube_2"
    },
    {
      "mesh": 0,
      "name": "Object_4"
    },
    {
      "children": [
        6
      ],
      "matrix": [
        0.9112630631151113,
        0.07620697789335085,
        -0.21461525968901718,
        0.0,
        -0.08652642830188861,
        0.8571745173374522,
        -0.06302281869848941,
        0.0,
        0.20740122818126516,
        0.08798030320722586,
        0.9118726776065968,
        0.0,
        -0.20027318596839905,
        0.6354235410690308,
        -0.06527715921401978,
        1.0
      ],
      "name": "Plane_3"
    },
    {
      "mesh": 1,
      "name": "Object_6"
    },
    {
      "children": [
        8
      ],
      "matrix": [
        0.14207249519689671,
        0.030478572596427105,
        -0.03410232279160292,
        0.0,
        -0.10122717182448837,
        0.4352809743925031,
        -0.03269144192251744,
        0.0,
        0.025002669894381026,
        0.014618851640087837,
        0.11722818571326851,
        0.0,
        -1.4097903966903687,
        -0.04862907528877258,
        0.2264387607574463,
        1.0
      ],
      "name": "Cube.001_4"
    },
    {
      "mesh": 2,
      "name": "Object_8"
    },
    {
      "children": [
        10
      ],
      "matrix": [
        0.0856249685215756,
        0.018368979974166255,
        -0.020552960032811415,
        0.0,
        -0.020321007884735988,
        0.08738116410129514,
        -0.006562694947387197,
        0.0,
        0.01862526122830295,
        0.010890034216531085,
        0.08732689714550547,
        0.0,
        -0.3948212265968323,
        0.4179549813270569,
        0.9352336525917053,
        1.0
      ],
      "name": "Cube.002_5"
    },
    {
      "mesh": 3,
      "name": "Object_10"
    },
    {
      "children": [
        12
      ],
      "matrix": [
        0.17532396766106384,
        0.037611954860409136,
        -0.04208382861155485,
        0.0,
        -0.02312338607082681,
        0.0994315047901853,
        -0.007467726492419014,
        0.0,
        0.03265017630757796,
        0.019090284576786777,
        0.1530844884936023,
        0.0,
        0.14624778926372528,
        0.41403433680534363,
        1.0027306079864502,
        1.0
      ],
      "name": "Cube.004_6"
    },
    {
      "mesh": 4,
      "name": "Object_12"
    },
    {
      "children": [
        14
      ],
      "matrix": [
        0.0856249685215756,
        0.018368979974166255,
        -0.020552960032811415,
        0.0,
        -0.020321007884735988,
        0.08738116410129514,
        -0.006562694947387197,
        0.0,
        0.01862526122830295,
        0.010890034216531085,
        0.08732689714550547,
        0.0,
        0.5596076250076294,
        0.622706949710846,
        0.706137478351593,
        1.0
      ],
      "name": "Cube.003_7"
    },
    {
      "mesh": 5,
      "name": "Object_14"
    }
  ],
  "scene": 0,
  "scenes": [
    {
      "name": "Sketchfab_Scene",
      "nodes": [
        0
      ]
    }
  ]
}
